<?xml version="1.0" encoding="utf-8"?>
<!-- Generator: Adobe Illustrator 21.0.2, SVG Export Plug-In . SVG Version: 6.00 Build 0)  -->
<svg version="1.1" id="Layer_1" xmlns="http://www.w3.org/2000/svg" xmlns:xlink="http://www.w3.org/1999/xlink" x="0px" y="0px"
	 viewBox="0 0 1920 460.8" style="enable-background:new 0 0 1920 460.8;" xml:space="preserve">
<style type="text/css">
	.st0{fill:#009F7F;}
</style>
<g>
	<path class="st0" d="M1593.9,689.5c-13.7,0.6-20.5,11.7-15.1,23c5.4,11.4,11.2,22.6,17,33.9c1.9,3.7,5.4,4.9,9.3,3.2
		c5.2-2.3,10.4-4.6,15.6-7.1c3.9-1.8,5.4-5.6,3.5-9.5c-6-12.2-12-24.3-18.3-36.3C1603.1,691.7,1598.2,689.5,1593.9,689.5z"/>
	<path class="st0" d="M1652.4,781.6c1.1,0,2.2,0,3.3,0c14.8,0,29.6,0.1,44.4,0.1c1,0,2.2-0.2,3,0.3c0.9,0.5,2.1,1.8,2,2.6
		c-0.1,1-1.3,2-2.3,2.6c-0.7,0.4-1.8,0.1-2.7,0.1c-20.1,0-40.2-0.1-60.3-0.1c-1.2,0-2.5,0-3.7,0.2c-5.9,0.9-11.6,0-17.1-2.2
		c-10.7-4.2-16.6-15-14.1-25.8c1.8-7.8,9.8-14.3,19.3-15.7c10.2-1.5,17.8,3.9,19.2,14c0.4,3,0.2,6.1-0.1,9.2
		c-0.3,4.9,1.7,8.1,5.9,10.5c1.4,0.8,2.5,2.3,3.7,3.5C1652.7,781.1,1652.5,781.4,1652.4,781.6z M1637.6,764.2
		c0.2-2.2,0.1-4.5-0.1-6.7c-0.4-4.2-3.7-7.5-7.8-8.3c-8-1.5-17.8,5-19.5,12.9c-1.4,6.6,2.7,13.6,10,17.2c6.4,3.2,13.6,3.4,22.8,0.7
		C1637.8,775.6,1636.9,770.2,1637.6,764.2z"/>
</g>
<g>
	<path class="st0" d="M1569.3,351.4c-5.1,5.2-10,13.4-17.1,16.7c-10,4.5-18.9-1.5-23.7-11c-6.1-12.2-11.5-24.8-16.4-37.5
		c-3.1-8-7-11.7-16.4-11.4c-30.4,0.7-60.7,0.7-91.1,0c-9.4-0.2-13.4,3.3-16.4,11.5c-4.3,11.9-9.4,23.5-14.7,35
		c-6,13-17.3,18.1-28.3,13.5c-10.1-4.3-13.8-15.2-8.2-28.7c30.5-73.9,60.9-147.8,92.5-221.3c3.1-7.1,12.9-13.8,20.9-15.9
		c11-2.9,18.5,5.3,22.8,15.6c30.3,72.3,60.8,144.6,91.1,216.9C1566,339,1566.9,343.5,1569.3,351.4z M1488.4,264.7
		c-12.9-29.8-25.2-58.3-38.9-89.9c-13.3,31.7-25.2,60.1-37.8,89.9C1438.3,264.7,1462.2,264.7,1488.4,264.7z"/>
	<path class="st0" d="M784.9,273.4c0,24.8,0.4,47.9-0.1,71c-0.4,19.3-17.4,30.7-31.4,20.5c-5.6-4.1-10.5-13.2-10.5-20.1
		c-0.8-72.8-0.6-145.7-0.3-218.5c0.1-14.5,8.3-21.8,23.3-21.9c29.8-0.2,59.7-0.9,89.5,0.2c29.4,1,48.2,19.1,60.9,43.7
		c29.7,57.4-12.4,131.3-75.7,125.4C822.6,272,804.5,273.4,784.9,273.4z M785.7,231.2c17.9,0,35-0.8,52,0.2
		c18.1,1.1,31.7-4.4,39.2-21.7c8.1-18.9,6.3-36.8-7-52.5c-3.9-4.6-10.6-9.3-16.2-9.6c-22.5-1.1-45.1-0.5-68-0.5
		C785.7,175.7,785.7,202.7,785.7,231.2z"/>
	<path class="st0" d="M553.5,282.5c2.5,25.2,22.6,45.2,46.9,47.3c18.4,1.6,36,0.1,52.5-10.5c5.6-3.6,14.9-5.3,21.3-3.4
		c15.4,4.4,16.4,24,1.7,35c-52.8,39.9-147,24.5-165.5-54.9c-14.4-61.6,19-119.2,76.1-131.9c55.9-12.4,116.9,40.2,112.9,97.3
		c-1,13.9-9,20.7-26.2,20.9c-34.4,0.3-68.8,0.1-103.2,0.1C564.5,282.5,559,282.5,553.5,282.5z M553.3,244.5c32.7,0,65.3,0,97.9,0
		c-1.6-23.5-20.4-40.1-46-41.1C576.2,202.3,557,217.3,553.3,244.5z"/>
	<path class="st0" d="M341.5,194.7c20.3-21,39.5-33.5,65.5-32.5c29.6,1.2,47.8,13.7,55.7,42c3.5,12.5,5.2,25.8,5.6,38.8
		c0.9,30.8,0.6,61.7,0.7,92.5c0.1,21.6-8.1,33.1-22.8,32.8c-14.5-0.3-21.9-11-21.9-32c0-26.3,0-52.6,0-78.9c0-4.5,0-9.1-0.3-13.6
		c-1.7-28.2-12.5-40.1-36.6-40.4c-26.7-0.3-44.8,15.7-45.6,42.1c-0.9,29.3-0.3,58.6-0.3,88c0,23.7-6.9,34.7-21.9,34.9
		c-15.1,0.2-22.4-10.9-22.4-34.4c-0.1-72.3-0.3-144.6-0.5-216.9c0-12.5,2.3-23.7,16-27.6c15.9-4.5,28.3,5.8,28.7,23.8
		c0.4,20.7,0.1,41.5,0.1,62.2C341.5,180.6,341.5,185.5,341.5,194.7z"/>
	<path class="st0" d="M1215.2,162c58.7,0.7,101.9,45.9,101.2,106c-0.6,59.8-45.7,104.7-104,103.6c-58.9-1.1-101.8-46.2-101.1-106.4
		C1111.9,205.3,1156.1,161.4,1215.2,162z M1213.9,329.7c33.8,0,57.7-25.7,57.9-62.4c0.2-37.1-24.5-64.7-58-64.6
		c-33.5,0-58.1,27.5-58,64.7C1156,303.8,1180.1,329.7,1213.9,329.7z"/>
	<path class="st0" d="M129.3,147.5c-20.1,0-38.3,0.1-56.4,0c-16.6-0.2-25.8-7.7-26.1-21c-0.3-13.7,9.3-21.6,26.6-21.7
		c51.1-0.2,102.1-0.3,153.2-0.4c2.5,0,5.1-0.1,7.6,0c17,0.5,25.5,7.5,25.6,21.2c0.1,14.1-8.9,21.7-26.6,21.9
		c-18.1,0.2-36.2,0-55.7,0c0,30.4,0,59.6,0,88.7c0.1,34.4,0.3,68.8,0.3,103.1c0,18.8-9.2,29.8-24.7,29.8
		c-15.1,0-23.8-10.8-23.8-30.4c-0.1-57.6,0-115.3,0-172.9C129.3,160.3,129.3,154.8,129.3,147.5z"/>
	<path class="st0" d="M1779.9,168.3c3.6-17.7-7.5-45.5,23.7-45c30.1,0.5,18.4,27.6,22.7,45.9c8.3,0,16.8-0.3,25.3,0.1
		c13.1,0.6,21.6,8.9,21.7,20.6c0.1,11.6-8.3,19.7-21.5,20.7c-4.5,0.3-9.1,0-13.6,0.1c-4,0.1-7.9,0.5-12.9,0.9
		c0,34.5-0.4,68.2,0.2,102c0.2,12.3,8.2,17.4,21,14.3c10.7-2.6,20.4-4.3,24.4,9.3c3.7,12.7-3.3,20.2-13.6,25.4
		c-35.3,17.9-74.5-4.4-76.1-43.4c-0.7-17.7-0.3-35.4-0.3-53.1c0-17.7,0-35.4,0-54.5c-15.8-2.4-38.7,3.1-38-22.6
		C1743.4,165.2,1764.7,170.7,1779.9,168.3z"/>
	<path class="st0" d="M1012.9,190.8c16.3-19.3,35-29.3,57.3-27.7c8.8,0.6,19.6,6.3,24.7,13.2c3.5,4.7,1.6,19-3,22.8
		c-6,5-17.7,6.8-25.9,5.1c-28.8-6-49.7,6.7-53.2,37.6c-2.7,24.5-1.4,49.4-1.8,74.2c-0.1,8.6,0.1,17.2,0,25.8
		c-0.2,16.6-8.9,27-22.2,26.8c-13.3-0.2-21.5-10.6-21.7-27.4c-0.2-33.4-0.3-66.7-0.4-100.1c-0.1-14.2,0-28.3,0-42.5
		c0-20.3,5.3-30,18.4-31.9C1001.3,164.3,1008.6,174.6,1012.9,190.8z"/>
	<path class="st0" d="M1643.4,189.8c16.6-19.7,36.6-28.9,60.8-27.6c11.6,0.6,20.8,5.5,23.4,17.7c3.7,17.3-9.9,31.1-27.2,24.7
		c-37.4-13.8-58.7,17.5-58.7,47.7c0,28.8,0,57.7-0.1,86.5c-0.1,18.7-7.5,28.4-21.7,28.6c-14.4,0.3-22.5-9.5-22.6-27.8
		c-0.2-49.6-0.4-99.1-0.5-148.7c0-13.1,5.5-23,19.2-25.1c12.8-1.9,21.1,4.8,24.9,17.1C1641.5,184.7,1642.2,186.4,1643.4,189.8z"/>
</g>
<text transform="matrix(1 0 0 1 184.2598 955.6609)" class="st0" style="font-family:'SegoeScript-Bold'; font-size:130.7148px;">By Art From Heart</text>
</svg>
